<?xml version="1.0" encoding="UTF-8"?>
<svg id="Layer_2" data-name="Layer 2" xmlns="http://www.w3.org/2000/svg" viewBox="0 0 434.72 219.82">
  <defs>
    <style>
      .cls-1 {
        fill: none;
        stroke: #231f20;
      }

      .cls-1, .cls-2 {
        stroke-miterlimit: 10;
      }

      .cls-2 {
        fill: #aed8e6;
        stroke: #4783b5;
      }

      .cls-3 {
        font-size: 36px;
      }

      .cls-3, .cls-4, .cls-5, .cls-6, .cls-7, .cls-8 {
        fill: #231f20;
      }

      .cls-9, .cls-4, .cls-10, .cls-8 {
        font-family: CMUSerif-Roman, 'CMU Serif';
      }

      .cls-11 {
        letter-spacing: -.08em;
      }

      .cls-12, .cls-6, .cls-7 {
        font-family: CMUSerif-Italic, 'CMU Serif';
        font-style: italic;
      }

      .cls-4 {
        font-size: 7.66px;
      }

      .cls-10 {
        letter-spacing: .03em;
      }

      .cls-5 {
        stroke-width: 0px;
      }

      .cls-6 {
        font-size: 17.08px;
      }

      .cls-13 {
        letter-spacing: 0em;
      }

      .cls-7 {
        font-size: 9.17px;
      }

      .cls-8 {
        font-size: 21.07px;
      }
    </style>
  </defs>
  <g id="observation">
    <circle class="cls-2" cx="27.5" cy="39.32" r="18"/>
    <text class="cls-6" transform="translate(14.18 42.26)"><tspan x="0" y="0">x</tspan></text>
    <text class="cls-6" transform="translate(28.29 42.26)"><tspan x="0" y="0">y</tspan></text>
    <text class="cls-4" transform="translate(36.11 45.69)"><tspan x="0" y="0">1</tspan></text>
    <text class="cls-4" transform="translate(22.02 45.69)"><tspan x="0" y="0">1</tspan></text>
    <text class="cls-7" transform="translate(25.75 42.26)"><tspan x="0" y="0">,</tspan></text>
    <circle class="cls-2" cx="99.5" cy="120.32" r="18"/>
    <text class="cls-6" transform="translate(86.18 123.26)"><tspan x="0" y="0">x</tspan></text>
    <text class="cls-6" transform="translate(100.29 123.26)"><tspan x="0" y="0">y</tspan></text>
    <text class="cls-4" transform="translate(108.11 126.69)"><tspan x="0" y="0">2</tspan></text>
    <text class="cls-4" transform="translate(94.22 126.69)"><tspan x="0" y="0">2</tspan></text>
    <text class="cls-7" transform="translate(97.75 123.26)"><tspan x="0" y="0">,</tspan></text>
    <circle class="cls-2" cx="171.5" cy="120.32" r="18"/>
    <text class="cls-6" transform="translate(158.18 123.26)"><tspan x="0" y="0">x</tspan></text>
    <text class="cls-6" transform="translate(172.29 123.26)"><tspan x="0" y="0">y</tspan></text>
    <text class="cls-4" transform="translate(180.11 126.69)"><tspan x="0" y="0">3</tspan></text>
    <text class="cls-4" transform="translate(166.22 126.69)"><tspan x="0" y="0">3</tspan></text>
    <text class="cls-7" transform="translate(169.75 123.26)"><tspan x="0" y="0">,</tspan></text>
    <circle class="cls-2" cx="243.5" cy="120.32" r="18"/>
    <text class="cls-6" transform="translate(230.18 123.26)"><tspan x="0" y="0">x</tspan></text>
    <text class="cls-6" transform="translate(244.29 123.26)"><tspan x="0" y="0">y</tspan></text>
    <text class="cls-4" transform="translate(252.11 126.69)"><tspan x="0" y="0">4</tspan></text>
    <text class="cls-4" transform="translate(238.22 126.69)"><tspan x="0" y="0">4</tspan></text>
    <text class="cls-7" transform="translate(241.75 123.26)"><tspan x="0" y="0">,</tspan></text>
    <circle class="cls-2" cx="27.5" cy="192.32" r="18"/>
    <text class="cls-6" transform="translate(14.18 195.26)"><tspan x="0" y="0">x</tspan></text>
    <text class="cls-6" transform="translate(28.29 195.26)"><tspan x="0" y="0">y</tspan></text>
    <text class="cls-4" transform="translate(36.11 198.69)"><tspan x="0" y="0">5</tspan></text>
    <text class="cls-4" transform="translate(22.02 198.69)"><tspan x="0" y="0">5</tspan></text>
    <text class="cls-7" transform="translate(25.75 195.26)"><tspan x="0" y="0">,</tspan></text>
    <circle class="cls-2" cx="99.5" cy="192.32" r="18"/>
    <text class="cls-6" transform="translate(86.18 195.26)"><tspan x="0" y="0">x</tspan></text>
    <text class="cls-6" transform="translate(100.29 195.26)"><tspan x="0" y="0">y</tspan></text>
    <text class="cls-4" transform="translate(108.11 198.69)"><tspan x="0" y="0">6</tspan></text>
    <text class="cls-4" transform="translate(94.22 198.69)"><tspan x="0" y="0">6</tspan></text>
    <text class="cls-7" transform="translate(97.75 195.26)"><tspan x="0" y="0">,</tspan></text>
    <circle class="cls-2" cx="171.5" cy="192.32" r="18"/>
    <text class="cls-6" transform="translate(158.18 195.26)"><tspan x="0" y="0">x</tspan></text>
    <text class="cls-6" transform="translate(172.29 195.26)"><tspan x="0" y="0">y</tspan></text>
    <text class="cls-4" transform="translate(180.11 198.69)"><tspan x="0" y="0">7</tspan></text>
    <text class="cls-4" transform="translate(166.22 198.69)"><tspan x="0" y="0">7</tspan></text>
    <text class="cls-7" transform="translate(169.75 195.26)"><tspan x="0" y="0">,</tspan></text>
    <circle class="cls-2" cx="243.5" cy="192.32" r="18"/>
    <text class="cls-6" transform="translate(230.18 195.26)"><tspan x="0" y="0">x</tspan></text>
    <text class="cls-6" transform="translate(244.29 195.26)"><tspan x="0" y="0">y</tspan></text>
    <text class="cls-4" transform="translate(252.11 198.69)"><tspan x="0" y="0">8</tspan></text>
    <text class="cls-4" transform="translate(238.22 198.69)"><tspan x="0" y="0">8</tspan></text>
    <text class="cls-7" transform="translate(241.75 195.26)"><tspan x="0" y="0">,</tspan></text>
    <rect class="cls-1" x=".5" y="93.32" width="270" height="126"/>
    <g>
      <line class="cls-1" x1="27.5" y1="120.32" x2="27.5" y2="82.5"/>
      <polygon class="cls-5" points="32.49 83.96 27.5 75.32 22.51 83.96 32.49 83.96"/>
    </g>
    <text class="cls-8" transform="translate(.5 10.34) scale(.58)"><tspan class="cls-11" x="0" y="0">T</tspan><tspan class="cls-13" x="13.46" y="0">est set</tspan></text>
    <text class="cls-8" transform="translate(223.42 91.34) scale(.58)"><tspan class="cls-11" x="0" y="0">T</tspan><tspan class="cls-13" x="13.46" y="0">rain set</tspan></text>
    <rect class="cls-1" x=".5" y="12.32" width="54" height="54"/>
    <text class="cls-3" transform="translate(277.82 164.62) scale(.58)"><tspan class="cls-9" x="0" y="0">... re</tspan><tspan class="cls-10" x="72.02" y="0">p</tspan><tspan class="cls-9" x="92.99" y="0">eat </tspan><tspan class="cls-12" x="152.89" y="0">n</tspan><tspan class="cls-9" x="173.11" y="0" xml:space="preserve"> times</tspan></text>
  </g>
</svg>